<?xml version="1.0" encoding="UTF-8"?>
<svg width="20px" height="20px" viewBox="0 0 20 20" version="1.1" xmlns="http://www.w3.org/2000/svg" xmlns:xlink="http://www.w3.org/1999/xlink">
    <title>Facebook</title>
    <g id="Page-1" stroke="none" stroke-width="1" fill="none" fill-rule="evenodd">
        <g id="DT-NEW-No-Ads" transform="translate(-467.000000, -88.000000)" fill="#FFFFFF" fill-rule="nonzero">
            <g id="Social-Icons" transform="translate(467.000000, 88.000000)">
                <path d="M20,10 C20,4.4765625 15.5234375,0 10,0 C4.4765625,0 0,4.4765625 0,10 C0,15.5234375 4.4765625,20 10,20 C10.0585938,20 10.1171875,20 10.1757812,19.9960938 L10.1757812,12.2148438 L8.02734375,12.2148438 L8.02734375,9.7109375 L10.1757812,9.7109375 L10.1757812,7.8671875 C10.1757812,5.73046875 11.4804688,4.56640625 13.3867188,4.56640625 C14.3007812,4.56640625 15.0859375,4.6328125 15.3125,4.6640625 L15.3125,6.8984375 L14,6.8984375 C12.9648438,6.8984375 12.7617188,7.390625 12.7617188,8.11328125 L12.7617188,9.70703125 L15.2421875,9.70703125 L14.9179688,12.2109375 L12.7617188,12.2109375 L12.7617188,19.6132812 C16.9414062,18.4140625 20,14.5664062 20,10 Z" id="Facebook"></path>
            </g>
        </g>
    </g>
</svg>