<?xml version="1.0" encoding="UTF-8"?>
<svg width="20px" height="20px" viewBox="0 0 20 20" version="1.1" xmlns="http://www.w3.org/2000/svg" xmlns:xlink="http://www.w3.org/1999/xlink">
    <title>Twitter</title>
    <g id="Page-1" stroke="none" stroke-width="1" fill="none" fill-rule="evenodd">
        <g id="DT-NEW-No-Ads" transform="translate(-497.000000, -88.000000)" fill="#FFFFFF" fill-rule="nonzero">
            <g id="Social-Icons" transform="translate(467.000000, 88.000000)">
                <path d="M40,0 C34.4779968,0 30,4.47799684 30,10 C30,15.5220032 34.4779968,20 40,20 C45.5220032,20 50,15.5220032 50,10 C50,4.47799684 45.5220032,0 40,0 Z M44.5658875,7.79693602 C44.5703125,7.89535523 44.5724487,7.99423219 44.5724487,8.09356687 C44.5724487,11.1265564 42.2637939,14.6240234 38.0418396,14.624176 L38.0419922,14.624176 L38.0418396,14.624176 C36.7456055,14.624176 35.5393982,14.2442322 34.5236206,13.5931396 C34.7032166,13.6143494 34.8860168,13.6248779 35.0711059,13.6248779 C36.1465454,13.6248779 37.1362305,13.2580566 37.9219055,12.6423645 C36.9171143,12.6237488 36.0699463,11.9601441 35.7775879,11.0481262 C35.917511,11.0749817 36.0614014,11.0896301 36.2089539,11.0896301 C36.418457,11.0896301 36.6213989,11.0614014 36.81427,11.0087586 C35.7640076,10.7984924 34.9728394,9.87030031 34.9728394,8.75885008 C34.9728394,8.74847414 34.9728394,8.73916625 34.9731445,8.7295532 C35.2824402,8.90151977 35.6361389,9.00497437 36.0127258,9.01657105 C35.3964234,8.60534668 34.9913025,7.90237426 34.9913025,7.10601805 C34.9913025,6.68548586 35.1049805,6.29150391 35.302124,5.95230102 C36.434021,7.34115602 38.1256104,8.25454711 40.0332641,8.35052492 C39.9938965,8.18237305 39.9736023,8.00720215 39.9736023,7.82714844 C39.9736023,6.56005859 41.0015869,5.53207398 42.2691345,5.53207398 C42.9293823,5.53207398 43.5256958,5.81115723 43.9445496,6.25732422 C44.4674683,6.1541748 44.9584961,5.96313477 45.4020691,5.70022582 C45.2304077,6.23596191 44.8666382,6.68548586 44.3927002,6.96975707 C44.8570252,6.91421508 45.29953,6.79107664 45.7107544,6.60827637 C45.403595,7.06863402 45.0140381,7.47299195 44.5658875,7.79693602 Z" id="Twitter"></path>
            </g>
        </g>
    </g>
</svg>